<svg width="173" height="208" viewBox="0 0 173 208" fill="none" xmlns="http://www.w3.org/2000/svg">
<rect width="173" height="208" rx="10" fill="#2E3650"/>
<path d="M49.2704 144.168C47.9918 144.168 46.9884 143.739 46.2604 142.88C45.5324 142.012 45.1684 140.757 45.1684 139.114C45.1684 138.293 45.2618 137.569 45.4484 136.944C45.6351 136.319 45.9058 135.791 46.2604 135.362C46.6151 134.933 47.0444 134.611 47.5484 134.396C48.0618 134.172 48.6358 134.06 49.2704 134.06C50.1198 134.06 50.8291 134.247 51.3984 134.62C51.9771 134.993 52.4298 135.544 52.7564 136.272L51.4264 137C51.2584 136.533 50.9971 136.165 50.6424 135.894C50.2971 135.614 49.8398 135.474 49.2704 135.474C48.5144 135.474 47.9218 135.731 47.4924 136.244C47.0631 136.757 46.8484 137.467 46.8484 138.372V139.856C46.8484 140.761 47.0631 141.471 47.4924 141.984C47.9218 142.497 48.5144 142.754 49.2704 142.754C49.8584 142.754 50.3344 142.605 50.6984 142.306C51.0718 141.998 51.3471 141.606 51.5244 141.13L52.7984 141.9C52.4718 142.609 52.0144 143.165 51.4264 143.566C50.8384 143.967 50.1198 144.168 49.2704 144.168ZM54.3635 144V136.72H55.8895V138.12H55.9595C56.0622 137.747 56.2768 137.42 56.6035 137.14C56.9302 136.86 57.3828 136.72 57.9615 136.72H58.3675V138.19H57.7655C57.1588 138.19 56.6922 138.288 56.3655 138.484C56.0482 138.68 55.8895 138.969 55.8895 139.352V144H54.3635ZM62.5105 144.168C61.9878 144.168 61.5212 144.079 61.1105 143.902C60.6998 143.725 60.3498 143.473 60.0605 143.146C59.7712 142.81 59.5472 142.409 59.3885 141.942C59.2392 141.466 59.1645 140.939 59.1645 140.36C59.1645 139.781 59.2392 139.259 59.3885 138.792C59.5472 138.316 59.7712 137.915 60.0605 137.588C60.3498 137.252 60.6998 136.995 61.1105 136.818C61.5212 136.641 61.9878 136.552 62.5105 136.552C63.0425 136.552 63.5092 136.645 63.9105 136.832C64.3212 137.019 64.6618 137.28 64.9325 137.616C65.2032 137.943 65.4038 138.325 65.5345 138.764C65.6745 139.203 65.7445 139.674 65.7445 140.178V140.752H60.7465V140.99C60.7465 141.55 60.9098 142.012 61.2365 142.376C61.5725 142.731 62.0485 142.908 62.6645 142.908C63.1125 142.908 63.4905 142.81 63.7985 142.614C64.1065 142.418 64.3678 142.152 64.5825 141.816L65.4785 142.698C65.2078 143.146 64.8158 143.505 64.3025 143.776C63.7892 144.037 63.1918 144.168 62.5105 144.168ZM62.5105 137.742C62.2492 137.742 62.0065 137.789 61.7825 137.882C61.5678 137.975 61.3812 138.106 61.2225 138.274C61.0732 138.442 60.9565 138.643 60.8725 138.876C60.7885 139.109 60.7465 139.366 60.7465 139.646V139.744H64.1345V139.604C64.1345 139.044 63.9898 138.596 63.7005 138.26C63.4112 137.915 63.0145 137.742 62.5105 137.742ZM72.7678 144C72.3665 144 72.0585 143.888 71.8438 143.664C71.6291 143.431 71.4985 143.137 71.4518 142.782H71.3818C71.2418 143.239 70.9851 143.585 70.6118 143.818C70.2385 144.051 69.7858 144.168 69.2538 144.168C68.4978 144.168 67.9145 143.972 67.5038 143.58C67.1025 143.188 66.9018 142.661 66.9018 141.998C66.9018 141.27 67.1631 140.724 67.6858 140.36C68.2178 139.996 68.9925 139.814 70.0098 139.814H71.3258V139.198C71.3258 138.75 71.2045 138.405 70.9618 138.162C70.7191 137.919 70.3411 137.798 69.8278 137.798C69.3985 137.798 69.0485 137.891 68.7778 138.078C68.5071 138.265 68.2785 138.503 68.0918 138.792L67.1818 137.966C67.4245 137.555 67.7651 137.219 68.2038 136.958C68.6425 136.687 69.2165 136.552 69.9258 136.552C70.8685 136.552 71.5918 136.771 72.0958 137.21C72.5998 137.649 72.8518 138.279 72.8518 139.1V142.754H73.6218V144H72.7678ZM69.6878 143.006C70.1638 143.006 70.5558 142.903 70.8638 142.698C71.1718 142.483 71.3258 142.199 71.3258 141.844V140.794H70.0378C68.9831 140.794 68.4558 141.121 68.4558 141.774V142.026C68.4558 142.353 68.5631 142.6 68.7778 142.768C69.0018 142.927 69.3051 143.006 69.6878 143.006ZM77.0924 144C76.5604 144 76.159 143.865 75.8884 143.594C75.6177 143.314 75.4824 142.922 75.4824 142.418V137.966H74.3484V136.72H74.9644C75.2164 136.72 75.389 136.664 75.4824 136.552C75.585 136.44 75.6364 136.258 75.6364 136.006V134.732H77.0084V136.72H78.5344V137.966H77.0084V142.754H78.4224V144H77.0924ZM82.991 144.168C82.4683 144.168 82.0016 144.079 81.591 143.902C81.1803 143.725 80.8303 143.473 80.541 143.146C80.2516 142.81 80.0276 142.409 79.869 141.942C79.7196 141.466 79.645 140.939 79.645 140.36C79.645 139.781 79.7196 139.259 79.869 138.792C80.0276 138.316 80.2516 137.915 80.541 137.588C80.8303 137.252 81.1803 136.995 81.591 136.818C82.0016 136.641 82.4683 136.552 82.991 136.552C83.523 136.552 83.9896 136.645 84.391 136.832C84.8016 137.019 85.1423 137.28 85.413 137.616C85.6836 137.943 85.8843 138.325 86.015 138.764C86.155 139.203 86.225 139.674 86.225 140.178V140.752H81.227V140.99C81.227 141.55 81.3903 142.012 81.717 142.376C82.053 142.731 82.529 142.908 83.145 142.908C83.593 142.908 83.971 142.81 84.279 142.614C84.587 142.418 84.8483 142.152 85.063 141.816L85.959 142.698C85.6883 143.146 85.2963 143.505 84.783 143.776C84.2696 144.037 83.6723 144.168 82.991 144.168ZM82.991 137.742C82.7296 137.742 82.487 137.789 82.263 137.882C82.0483 137.975 81.8616 138.106 81.703 138.274C81.5536 138.442 81.437 138.643 81.353 138.876C81.269 139.109 81.227 139.366 81.227 139.646V139.744H84.615V139.604C84.615 139.044 84.4703 138.596 84.181 138.26C83.8916 137.915 83.495 137.742 82.991 137.742ZM97.6209 142.516H97.5649C97.4622 142.992 97.1822 143.389 96.7249 143.706C96.2769 144.014 95.6795 144.168 94.9329 144.168C94.3542 144.168 93.8175 144.061 93.3229 143.846C92.8282 143.622 92.3989 143.3 92.0349 142.88C91.6802 142.451 91.4002 141.923 91.1949 141.298C90.9989 140.663 90.9009 139.935 90.9009 139.114C90.9009 138.302 91.0035 137.583 91.2089 136.958C91.4142 136.323 91.7035 135.791 92.0769 135.362C92.4502 134.933 92.8982 134.611 93.4209 134.396C93.9435 134.172 94.5269 134.06 95.1709 134.06C96.0482 134.06 96.7902 134.256 97.3969 134.648C98.0035 135.031 98.4749 135.567 98.8109 136.258L97.5229 137.014C97.3362 136.557 97.0469 136.188 96.6549 135.908C96.2629 135.619 95.7682 135.474 95.1709 135.474C94.3962 135.474 93.7709 135.721 93.2949 136.216C92.8282 136.711 92.5949 137.411 92.5949 138.316V139.912C92.5949 140.817 92.8282 141.517 93.2949 142.012C93.7709 142.507 94.3962 142.754 95.1709 142.754C95.4789 142.754 95.7729 142.717 96.0529 142.642C96.3329 142.558 96.5755 142.441 96.7809 142.292C96.9955 142.133 97.1635 141.942 97.2849 141.718C97.4155 141.485 97.4809 141.214 97.4809 140.906V140.15H95.4649V138.792H99.0069V144H97.6209V142.516ZM101.094 144V136.72H102.62V138.12H102.69C102.793 137.747 103.007 137.42 103.334 137.14C103.661 136.86 104.113 136.72 104.692 136.72H105.098V138.19H104.496C103.889 138.19 103.423 138.288 103.096 138.484C102.779 138.68 102.62 138.969 102.62 139.352V144H101.094ZM109.241 144.168C108.737 144.168 108.275 144.079 107.855 143.902C107.444 143.725 107.094 143.473 106.805 143.146C106.516 142.81 106.292 142.409 106.133 141.942C105.974 141.466 105.895 140.939 105.895 140.36C105.895 139.781 105.974 139.259 106.133 138.792C106.292 138.316 106.516 137.915 106.805 137.588C107.094 137.252 107.444 136.995 107.855 136.818C108.275 136.641 108.737 136.552 109.241 136.552C109.745 136.552 110.202 136.641 110.613 136.818C111.033 136.995 111.388 137.252 111.677 137.588C111.966 137.915 112.19 138.316 112.349 138.792C112.508 139.259 112.587 139.781 112.587 140.36C112.587 140.939 112.508 141.466 112.349 141.942C112.19 142.409 111.966 142.81 111.677 143.146C111.388 143.473 111.033 143.725 110.613 143.902C110.202 144.079 109.745 144.168 109.241 144.168ZM109.241 142.908C109.764 142.908 110.184 142.749 110.501 142.432C110.818 142.105 110.977 141.62 110.977 140.976V139.744C110.977 139.1 110.818 138.619 110.501 138.302C110.184 137.975 109.764 137.812 109.241 137.812C108.718 137.812 108.298 137.975 107.981 138.302C107.664 138.619 107.505 139.1 107.505 139.744V140.976C107.505 141.62 107.664 142.105 107.981 142.432C108.298 142.749 108.718 142.908 109.241 142.908ZM118.697 142.796H118.641C118.576 142.973 118.487 143.146 118.375 143.314C118.273 143.482 118.137 143.631 117.969 143.762C117.811 143.883 117.615 143.981 117.381 144.056C117.157 144.131 116.896 144.168 116.597 144.168C115.841 144.168 115.253 143.925 114.833 143.44C114.423 142.955 114.217 142.259 114.217 141.354V136.72H115.743V141.158C115.743 142.287 116.21 142.852 117.143 142.852C117.339 142.852 117.531 142.829 117.717 142.782C117.904 142.726 118.067 142.647 118.207 142.544C118.357 142.441 118.473 142.311 118.557 142.152C118.651 141.993 118.697 141.807 118.697 141.592V136.72H120.223V144H118.697V142.796ZM122.408 136.72H123.934V137.924H124.004C124.163 137.485 124.42 137.149 124.774 136.916C125.138 136.673 125.563 136.552 126.048 136.552C126.972 136.552 127.686 136.888 128.19 137.56C128.694 138.223 128.946 139.156 128.946 140.36C128.946 141.564 128.694 142.502 128.19 143.174C127.686 143.837 126.972 144.168 126.048 144.168C125.563 144.168 125.138 144.047 124.774 143.804C124.42 143.561 124.163 143.225 124.004 142.796H123.934V146.8H122.408V136.72ZM125.586 142.852C126.118 142.852 126.543 142.684 126.86 142.348C127.178 142.003 127.336 141.55 127.336 140.99V139.73C127.336 139.17 127.178 138.722 126.86 138.386C126.543 138.041 126.118 137.868 125.586 137.868C125.12 137.868 124.728 137.985 124.41 138.218C124.093 138.442 123.934 138.741 123.934 139.114V141.606C123.934 141.979 124.093 142.283 124.41 142.516C124.728 142.74 125.12 142.852 125.586 142.852Z" fill="#8795C5"/>
<circle cx="87" cy="88" r="28" fill="#242B42"/>
<g clip-path="url(#clip0_3_136)">
<path d="M87 78.6667V97.3333" stroke="#808FBE" stroke-width="2" stroke-linecap="round" stroke-linejoin="round"/>
<path d="M77.6667 88H96.3333" stroke="#808FBE" stroke-width="2" stroke-linecap="round" stroke-linejoin="round"/>
</g>
<defs>
<clipPath id="clip0_3_136">
<rect width="32" height="32" fill="white" transform="translate(71 72)"/>
</clipPath>
</defs>
</svg>
